<svg version="1.1" xmlns="http://www.w3.org/2000/svg" viewBox="0 0 894.8274800260804 677.8171170038129" width="1789.6549600521607" height="1355.6342340076258">
  <!-- svg-source:excalidraw -->
  
  <defs>
    <style class="style-fonts">
      @font-face {
        font-family: "Virgil";
        src: url("https://excalidraw.com/Virgil.woff2");
      }
      @font-face {
        font-family: "Cascadia";
        src: url("https://excalidraw.com/Cascadia.woff2");
      }
      @font-face {
        font-family: "Assistant";
        src: url("https://excalidraw.com/Assistant-Regular.woff2");
      }
    </style>
    
  </defs>
  <g stroke-linecap="round" transform="translate(10 398.2180392461873) rotate(0 136.94946801028652 134.1003201288128)"><path d="M7.86 8.16 C7.86 8.16, 7.86 8.16, 7.86 8.16 M7.86 8.16 C7.86 8.16, 7.86 8.16, 7.86 8.16 M2.75 26.24 C7.83 19.37, 14.13 15.54, 21.12 5.11 M2.75 26.24 C8.37 19.56, 13.98 13.62, 21.12 5.11 M2.88 38.28 C16.87 22.47, 27.1 8.29, 34.37 2.05 M2.88 38.28 C9.34 29.78, 15.84 22.43, 34.37 2.05 M2.36 51.07 C14.86 37.16, 23.04 25.61, 45 2.02 M2.36 51.07 C20.41 30.84, 36.54 12.45, 45 2.02 M2.49 63.11 C22.58 41.15, 37.11 22.79, 55.63 1.98 M2.49 63.11 C23.57 39.64, 43.39 16.76, 55.63 1.98 M2.62 75.16 C16.54 61.55, 30.6 45.6, 66.26 1.95 M2.62 75.16 C26.06 48.52, 49.69 23.23, 66.26 1.95 M2.76 87.2 C22.68 66.01, 44.37 41.71, 76.89 1.91 M2.76 87.2 C22.76 65.78, 41.79 42.56, 76.89 1.91 M2.23 99.99 C21.52 75.94, 40.28 54.24, 87.52 1.88 M2.23 99.99 C25.7 73.26, 48.88 45.83, 87.52 1.88 M2.37 112.03 C27.28 82.67, 52.08 55.87, 98.15 1.85 M2.37 112.03 C35.78 71.06, 71.49 30.59, 98.15 1.85 M2.5 124.07 C43.83 76.68, 86.6 29.61, 108.78 1.81 M2.5 124.07 C38.52 82.45, 75.07 39.18, 108.78 1.81 M2.63 136.11 C33.36 101.46, 62.97 70.15, 119.41 1.78 M2.63 136.11 C31.53 101.83, 60.69 67.81, 119.41 1.78 M2.11 148.91 C26.28 117.84, 53.23 87.81, 130.04 1.74 M2.11 148.91 C44.29 98.53, 88.05 49.17, 130.04 1.74 M2.24 160.95 C51.4 100.92, 103.54 43.35, 140.67 1.71 M2.24 160.95 C44.8 109.79, 88.01 60.24, 140.67 1.71 M2.38 172.99 C57.84 110.8, 112.26 48.61, 150.65 2.43 M2.38 172.99 C50.15 117.95, 98.11 62.59, 150.65 2.43 M2.51 185.03 C61.71 112.27, 123.01 42.62, 161.28 2.39 M2.51 185.03 C59.69 118.73, 117.05 53.33, 161.28 2.39 M1.99 197.83 C51.47 140.7, 98.93 86.49, 171.91 2.36 M1.99 197.83 C49.97 140.43, 99.42 84.65, 171.91 2.36 M2.12 209.87 C53.53 152.17, 102.77 96.55, 182.54 2.32 M2.12 209.87 C44.04 160.36, 86.99 111.91, 182.54 2.32 M2.25 221.91 C52.14 167.58, 99.03 110.54, 193.17 2.29 M2.25 221.91 C76.53 137.05, 150.51 52.19, 193.17 2.29 M0.42 236.22 C51.73 176.01, 103.16 119.35, 203.8 2.26 M0.42 236.22 C44.6 186.58, 87.13 137.58, 203.8 2.26 M1.86 246.75 C75.75 164.79, 146.26 83, 214.43 2.22 M1.86 246.75 C59.08 182.45, 114.51 117.63, 214.43 2.22 M5.93 254.26 C80.36 168.94, 152.01 85.19, 225.06 2.19 M5.93 254.26 C90.84 155.98, 175.54 59.55, 225.06 2.19 M10 261.77 C76.3 187.02, 140.19 111.42, 235.69 2.15 M10 261.77 C78.36 180.28, 148.96 99.54, 235.69 2.15 M16.7 266.27 C101.97 166.76, 188.95 70.66, 245.66 2.87 M16.7 266.27 C82.6 193.2, 146.62 117.91, 245.66 2.87 M23.39 270.76 C113.86 165.04, 205.09 60.79, 256.29 2.84 M23.39 270.76 C78.91 206.64, 135.8 141.57, 256.29 2.84 M34.68 269.97 C91.47 207.25, 145.99 142.48, 263.64 6.58 M34.68 269.97 C93.86 202.88, 153.45 133.65, 263.64 6.58 M45.31 269.94 C101.27 204.85, 158.21 141.15, 269.68 11.82 M45.31 269.94 C113.7 189.51, 182.33 111.02, 269.68 11.82 M55.28 270.66 C107.68 210.32, 156.94 153.33, 273.75 19.34 M55.28 270.66 C119.94 197.45, 186.03 122.6, 273.75 19.34 M65.91 270.62 C110 221.74, 152.53 171.06, 275.19 29.87 M65.91 270.62 C121.36 203.6, 178.58 138.79, 275.19 29.87 M76.54 270.59 C130.21 208.12, 183.36 145.35, 279.92 36.63 M76.54 270.59 C118.67 221.67, 161.33 172.36, 279.92 36.63 M87.17 270.55 C141.89 204.91, 200.5 138.63, 279.4 49.42 M87.17 270.55 C131.49 217.47, 178.09 165.99, 279.4 49.42 M97.8 270.52 C145.27 216.14, 193.87 158.87, 279.53 61.46 M97.8 270.52 C140.32 222.64, 183.38 174.48, 279.53 61.46 M108.43 270.48 C162.53 211.76, 212.5 151.72, 279.66 73.5 M108.43 270.48 C146.72 223.92, 187.44 177.93, 279.66 73.5 M119.06 270.45 C152.76 235.03, 182.41 197.66, 279.79 85.55 M119.06 270.45 C156.86 226.54, 194.57 182.86, 279.79 85.55 M129.69 270.41 C178.87 216.44, 225.1 160.36, 279.93 97.59 M129.69 270.41 C162.63 233.65, 193.19 196.82, 279.93 97.59 M140.32 270.38 C177.1 229.31, 211.47 190.07, 279.4 110.38 M140.32 270.38 C182.25 221.98, 227.03 170.69, 279.4 110.38 M150.95 270.35 C196.14 218.76, 240.24 167.58, 279.54 122.42 M150.95 270.35 C184.03 229.74, 217.89 191.93, 279.54 122.42 M161.58 270.31 C188.32 241.62, 211.48 211.92, 279.67 134.46 M161.58 270.31 C206.54 217.18, 251.94 163.85, 279.67 134.46 M172.21 270.28 C209.46 227.61, 245.45 183.31, 279.8 146.5 M172.21 270.28 C194.11 245.78, 215.7 220.69, 279.8 146.5 M182.84 270.24 C214.7 237.18, 244.25 201.61, 279.94 158.54 M182.84 270.24 C205.51 245.53, 225.19 221.44, 279.94 158.54 M193.47 270.21 C225.85 231.6, 256.65 197.27, 279.41 171.34 M193.47 270.21 C224.41 235.93, 253.66 200.28, 279.41 171.34 M204.1 270.17 C218.81 254.03, 233.41 233.03, 279.55 183.38 M204.1 270.17 C232.01 237.92, 259.2 206.08, 279.55 183.38 M214.73 270.14 C242.12 240.83, 268.53 209.45, 279.68 195.42 M214.73 270.14 C227.83 253.96, 240.57 238.1, 279.68 195.42 M225.36 270.1 C241.89 246.24, 262.67 227.36, 279.81 207.46 M225.36 270.1 C239.17 253.05, 253.02 236.73, 279.81 207.46 M235.99 270.07 C250.41 253.76, 266.27 237.54, 279.29 220.26 M235.99 270.07 C250.44 252.57, 267.03 235.78, 279.29 220.26 M245.31 271.54 C252.96 264.36, 259.89 256.95, 274.83 237.58 M245.31 271.54 C253.78 260.88, 264.91 249.67, 274.83 237.58 M258.56 268.49 C265.05 260.84, 268.7 253.7, 273.65 251.13 M258.56 268.49 C263.61 263.91, 267.82 258.9, 273.65 251.13" stroke="#e9ecef" stroke-width="1" fill="none"></path><path d="M32 0 C106 -0.37, 181.98 2.74, 241.9 0 M32 0 C106.24 1.12, 178.99 0.8, 241.9 0 M241.9 0 C262.89 0.84, 275.84 11.87, 273.9 32 M241.9 0 C264.69 1.22, 274.22 10.52, 273.9 32 M273.9 32 C274.37 100.31, 274.65 168.07, 273.9 236.2 M273.9 32 C273.94 77.31, 273.8 122.08, 273.9 236.2 M273.9 236.2 C272.53 258, 262 267.48, 241.9 268.2 M273.9 236.2 C271.85 256.12, 262.22 268.86, 241.9 268.2 M241.9 268.2 C195.99 267.35, 153.1 267.77, 32 268.2 M241.9 268.2 C185.84 268.91, 129.91 268.62, 32 268.2 M32 268.2 C12.57 267.36, 0 258.58, 0 236.2 M32 268.2 C12.59 267.46, 0.51 257.58, 0 236.2 M0 236.2 C1.3 172.02, 0.21 112.41, 0 32 M0 236.2 C-1.18 176.34, -1.39 114.97, 0 32 M0 32 C0.18 9.88, 10.17 1.82, 32 0 M0 32 C-0.81 8.99, 11.06 1.99, 32 0" stroke="#868e96" stroke-width="2" fill="none"></path></g><g transform="translate(102.23348748050137 403.2180392461873) rotate(0 44.715980529785156 17.5)"><text x="44.715980529785156" y="24.528" font-family="Virgil, Segoe UI Emoji" font-size="28px" fill="#868e96" text-anchor="middle" style="white-space: pre;" direction="ltr" dominant-baseline="alphabetic">Worker</text></g><g stroke-linecap="round" transform="translate(310.57560012775366 398.3664767461873) rotate(0 136.94946801028652 133.66672637881274)"><path d="M7.86 8.16 C7.86 8.16, 7.86 8.16, 7.86 8.16 M7.86 8.16 C7.86 8.16, 7.86 8.16, 7.86 8.16 M2.75 26.24 C9.92 17.19, 17.31 10.06, 21.12 5.11 M2.75 26.24 C8.48 19.3, 13.39 13.88, 21.12 5.11 M2.88 38.28 C11.39 26.27, 20.66 18.35, 34.37 2.05 M2.88 38.28 C12.52 27.87, 20.69 19.14, 34.37 2.05 M2.36 51.07 C11.53 38.29, 22.79 27.81, 45 2.02 M2.36 51.07 C13.85 39.49, 23.37 26.47, 45 2.02 M2.49 63.11 C21.95 39.96, 43.32 16.02, 55.63 1.98 M2.49 63.11 C16.23 47.01, 29.87 33.08, 55.63 1.98 M2.62 75.16 C16.19 59.67, 28.55 45.25, 66.26 1.95 M2.62 75.16 C25.32 50.82, 45.94 26.61, 66.26 1.95 M2.76 87.2 C23.41 65.8, 41.36 42.11, 76.89 1.91 M2.76 87.2 C28.23 58.07, 51.97 29.76, 76.89 1.91 M2.23 99.99 C34.35 60.9, 68.59 24.49, 87.52 1.88 M2.23 99.99 C27.72 71.79, 51.62 42.72, 87.52 1.88 M2.37 112.03 C30.08 78.25, 61.17 43.92, 98.15 1.85 M2.37 112.03 C37.88 69.97, 74.83 30.5, 98.15 1.85 M2.5 124.07 C33.72 91.88, 62.03 54.26, 108.78 1.81 M2.5 124.07 C43.8 75.37, 85.66 27.76, 108.78 1.81 M2.63 136.11 C29.03 104.19, 57.61 72.51, 119.41 1.78 M2.63 136.11 C31.94 104.45, 59.48 71.2, 119.41 1.78 M2.11 148.91 C34.2 113.07, 68.4 71.66, 130.04 1.74 M2.11 148.91 C33.8 111.8, 66.35 75.72, 130.04 1.74 M2.24 160.95 C45.33 110.36, 87.13 63.49, 140.67 1.71 M2.24 160.95 C35.51 122.69, 66.69 86.61, 140.67 1.71 M2.38 172.99 C45.11 124.63, 92.01 73.64, 150.65 2.43 M2.38 172.99 C33.84 138.34, 63.99 102.58, 150.65 2.43 M2.51 185.03 C43.46 133.2, 87.59 84.84, 161.28 2.39 M2.51 185.03 C44.39 136.18, 85.98 87.39, 161.28 2.39 M1.99 197.83 C37.86 157.43, 73.69 115.69, 171.91 2.36 M1.99 197.83 C50.57 139.75, 101.88 81.34, 171.91 2.36 M2.12 209.87 C43.24 159.2, 88.17 111.94, 182.54 2.32 M2.12 209.87 C50 155.87, 98.19 99.74, 182.54 2.32 M2.25 221.91 C46.36 171.26, 92.27 121.11, 193.17 2.29 M2.25 221.91 C61.84 156.17, 118.81 89.43, 193.17 2.29 M0.42 236.22 C45.79 180.62, 94.72 125.85, 203.8 2.26 M0.42 236.22 C42.02 190.22, 81.89 142.94, 203.8 2.26 M1.86 246.75 C52.02 188.81, 101.83 131.03, 214.43 2.22 M1.86 246.75 C70.07 169.48, 136.78 91.56, 214.43 2.22 M6.59 253.5 C54.6 200.1, 98.83 146.56, 225.06 2.19 M6.59 253.5 C62.51 189.27, 116.99 126.7, 225.06 2.19 M10.66 261.02 C78.97 182.2, 151.27 99.35, 235.69 2.15 M10.66 261.02 C89.73 169.8, 168.74 78.75, 235.69 2.15 M17.35 265.51 C76.71 194.13, 136.96 126.31, 245.66 2.87 M17.35 265.51 C66.45 209.92, 114.48 153.67, 245.66 2.87 M24.05 270 C113.18 165.7, 202.84 61.12, 256.29 2.84 M24.05 270 C104.22 177.34, 185.31 83.13, 256.29 2.84 M34.68 269.97 C80.97 217.58, 126.87 164.45, 263.64 6.58 M34.68 269.97 C106.47 188.45, 178.38 105.22, 263.64 6.58 M45.31 269.94 C96.1 213.57, 142.74 158, 269.68 11.82 M45.31 269.94 C128.4 173.45, 211.56 78.16, 269.68 11.82 M55.94 269.9 C133.88 181.89, 209.83 91.81, 273.75 19.34 M55.94 269.9 C100.59 219.13, 144.61 167.06, 273.75 19.34 M66.57 269.87 C143.73 181.27, 219.88 92.88, 275.19 29.87 M66.57 269.87 C151.03 173.79, 234.09 77.9, 275.19 29.87 M77.2 269.83 C118.3 219.81, 159.48 170.72, 279.92 36.63 M77.2 269.83 C145.39 187.75, 215.87 108.48, 279.92 36.63 M87.83 269.8 C137.21 210.78, 186.8 153.15, 279.4 49.42 M87.83 269.8 C150.27 196.36, 214.01 123.8, 279.4 49.42 M98.46 269.76 C161.04 197.56, 226.51 125.77, 279.53 61.46 M98.46 269.76 C139.5 222.58, 180.83 175.25, 279.53 61.46 M109.09 269.73 C162.35 206.18, 220.61 141.7, 279.66 73.5 M109.09 269.73 C177.55 190.92, 244.12 113.17, 279.66 73.5 M119.72 269.69 C168.08 214.82, 216.03 159.39, 279.79 85.55 M119.72 269.69 C178.57 201.8, 237.5 135.22, 279.79 85.55 M130.35 269.66 C164.84 228.67, 198.89 190.92, 279.93 97.59 M130.35 269.66 C182.51 210.15, 233.33 152.16, 279.93 97.59 M140.98 269.63 C185.66 218.33, 232.29 166.09, 279.4 110.38 M140.98 269.63 C180.41 222.36, 221.2 175.1, 279.4 110.38 M151.61 269.59 C185.83 229.35, 219.75 191.3, 279.54 122.42 M151.61 269.59 C184.36 235.08, 213.72 199.52, 279.54 122.42 M162.24 269.56 C205.58 216.35, 255.23 164.94, 279.67 134.46 M162.24 269.56 C204.73 222.08, 248.71 172.15, 279.67 134.46 M172.87 269.52 C208.75 225.41, 244.52 184.79, 279.8 146.5 M172.87 269.52 C202.25 233.84, 233.45 199.98, 279.8 146.5 M183.5 269.49 C203.1 241.97, 226.57 219.26, 279.94 158.54 M183.5 269.49 C216.86 228.86, 251.04 189.39, 279.94 158.54 M194.13 269.45 C214.65 246.08, 232.64 222.82, 279.41 171.34 M194.13 269.45 C225.88 233.98, 257.23 196.45, 279.41 171.34 M204.76 269.42 C224.42 248.67, 241.33 227.15, 279.55 183.38 M204.76 269.42 C223.27 246.44, 242.93 225.27, 279.55 183.38 M214.73 270.14 C232.34 247.34, 252.07 229.05, 279.68 195.42 M214.73 270.14 C239.08 243.41, 262.44 215.08, 279.68 195.42 M225.36 270.1 C236.52 256.57, 252.42 239, 279.81 207.46 M225.36 270.1 C244.07 250.01, 260.56 230.03, 279.81 207.46 M235.99 270.07 C249.11 254.57, 265.32 237.17, 279.29 220.26 M235.99 270.07 C253.82 249.62, 269.82 230.39, 279.29 220.26 M245.96 270.79 C254.16 261.26, 263.13 249.78, 275.49 236.83 M245.96 270.79 C256.51 259.84, 266.62 246.65, 275.49 236.83" stroke="#e9ecef" stroke-width="1" fill="none"></path><path d="M32 0 C108.94 1.27, 187.97 0.45, 241.9 0 M32 0 C113.52 -1.27, 193.12 -0.95, 241.9 0 M241.9 0 C261.68 -0.47, 272.58 9.98, 273.9 32 M241.9 0 C264 1.45, 275.98 12.06, 273.9 32 M273.9 32 C271.54 87.43, 272.47 139.8, 273.9 235.33 M273.9 32 C273.28 93.58, 274.03 153.58, 273.9 235.33 M273.9 235.33 C273.62 256.49, 262.31 265.45, 241.9 267.33 M273.9 235.33 C272.78 256.75, 261.4 268.97, 241.9 267.33 M241.9 267.33 C197.09 268.31, 155.05 267.7, 32 267.33 M241.9 267.33 C175.59 267.42, 110.66 266.46, 32 267.33 M32 267.33 C9.15 266.94, -1.52 257.44, 0 235.33 M32 267.33 C10.92 268.73, -2.21 257.17, 0 235.33 M0 235.33 C-0.22 183.8, -2.9 132.91, 0 32 M0 235.33 C0.17 188.09, -0.07 138.84, 0 32 M0 32 C1 9.85, 12.08 0.1, 32 0 M0 32 C-1.84 11.45, 10.69 0.05, 32 0" stroke="#868e96" stroke-width="2" fill="none"></path></g><g transform="translate(402.809087608255 403.3664767461873) rotate(0 44.715980529785156 17.5)"><text x="44.715980529785156" y="24.528" font-family="Virgil, Segoe UI Emoji" font-size="28px" fill="#868e96" text-anchor="middle" style="white-space: pre;" direction="ltr" dominant-baseline="alphabetic">Worker</text></g><g stroke-linecap="round" transform="translate(610.9285440055073 398.87428924618723) rotate(0 136.94946801028652 134.47141387881283)"><path d="M7.86 8.16 C7.86 8.16, 7.86 8.16, 7.86 8.16 M7.86 8.16 C7.86 8.16, 7.86 8.16, 7.86 8.16 M2.75 26.24 C9.49 18.05, 18.37 10.14, 21.12 5.11 M2.75 26.24 C6.88 20.48, 12.04 16, 21.12 5.11 M2.88 38.28 C11.53 28.37, 18.2 18.14, 34.37 2.05 M2.88 38.28 C8.27 30.6, 15.05 23.15, 34.37 2.05 M2.36 51.07 C12.43 40.15, 20.05 28.22, 45 2.02 M2.36 51.07 C17.77 32.81, 33.97 15.84, 45 2.02 M2.49 63.11 C14.36 45.43, 29.67 31.01, 55.63 1.98 M2.49 63.11 C22.8 39.96, 42.27 17.91, 55.63 1.98 M2.62 75.16 C23.74 51.14, 44.19 26.97, 66.26 1.95 M2.62 75.16 C25.74 46.93, 49.79 20.5, 66.26 1.95 M2.76 87.2 C32.87 52.87, 60.65 21.84, 76.89 1.91 M2.76 87.2 C31.26 54.67, 59.46 21.39, 76.89 1.91 M2.23 99.99 C19.06 79.19, 39.22 56.78, 87.52 1.88 M2.23 99.99 C29.04 69.9, 55.08 40.45, 87.52 1.88 M2.37 112.03 C32.02 79.11, 58.3 48.66, 98.15 1.85 M2.37 112.03 C38.73 70.86, 76.72 28.02, 98.15 1.85 M2.5 124.07 C35.4 86.75, 71.79 45.15, 108.78 1.81 M2.5 124.07 C37.42 83.13, 73.14 43.92, 108.78 1.81 M2.63 136.11 C41.92 90.47, 81.98 43.2, 119.41 1.78 M2.63 136.11 C48.52 81.53, 93.38 28.97, 119.41 1.78 M2.11 148.91 C50.76 94.06, 102.81 35.54, 130.04 1.74 M2.11 148.91 C47.22 99.82, 91.19 48.62, 130.04 1.74 M2.24 160.95 C56.84 96.95, 110.26 36.15, 140.67 1.71 M2.24 160.95 C34.96 122.76, 70.35 81.44, 140.67 1.71 M2.38 172.99 C47.31 124.12, 91.79 72.28, 150.65 2.43 M2.38 172.99 C53.57 111.12, 106.96 52.65, 150.65 2.43 M2.51 185.03 C53.54 127.38, 106.2 68.82, 161.28 2.39 M2.51 185.03 C36.98 146.97, 69.55 110.04, 161.28 2.39 M1.99 197.83 C47.44 147.24, 93.98 95.73, 171.91 2.36 M1.99 197.83 C56.28 134.31, 110.03 70.64, 171.91 2.36 M2.12 209.87 C40.86 164.46, 79.15 122.02, 182.54 2.32 M2.12 209.87 C65.67 135.98, 129.54 62.51, 182.54 2.32 M2.25 221.91 C40.82 178.06, 78.25 133.01, 193.17 2.29 M2.25 221.91 C63.85 152.66, 126.2 82.1, 193.17 2.29 M2.39 233.95 C75.32 150.89, 145.74 66.42, 203.8 2.26 M2.39 233.95 C45.34 186.15, 87.18 138.97, 203.8 2.26 M5.8 242.22 C81.69 157.15, 154.2 71.13, 214.43 2.22 M5.8 242.22 C83.08 155.19, 158.72 68.24, 214.43 2.22 M5.93 254.26 C73.07 174.79, 141.48 98.18, 225.06 2.19 M5.93 254.26 C74.22 173.68, 143.33 94.82, 225.06 2.19 M9.35 262.53 C75.56 186.27, 139.83 111.42, 235.69 2.15 M9.35 262.53 C94.12 165.54, 179.99 65.66, 235.69 2.15 M16.7 266.27 C65.29 212.01, 111.22 155.83, 245.66 2.87 M16.7 266.27 C73.24 199.02, 131.7 132.71, 245.66 2.87 M22.73 271.51 C93.2 193.02, 161.43 114.4, 256.29 2.84 M22.73 271.51 C78.03 208.18, 132.44 147.02, 256.29 2.84 M34.02 270.72 C87.5 211.82, 138.8 152.65, 263.64 6.58 M34.02 270.72 C84.15 214.49, 134.59 158.09, 263.64 6.58 M44.65 270.69 C129.94 172.98, 217.35 72.16, 269.68 11.82 M44.65 270.69 C113.63 190.66, 183.9 109.83, 269.68 11.82 M55.28 270.66 C134.58 179.3, 215.01 87.3, 273.75 19.34 M55.28 270.66 C109.33 211.85, 161.24 152.4, 273.75 19.34 M65.91 270.62 C126.62 203.66, 182.9 135.95, 275.19 29.87 M65.91 270.62 C135.23 188.49, 207.02 107.46, 275.19 29.87 M76.54 270.59 C122.85 213.8, 171.05 158.84, 279.92 36.63 M76.54 270.59 C153.02 182.54, 229.17 94.77, 279.92 36.63 M87.17 270.55 C132.98 217.15, 179.82 162.12, 279.4 49.42 M87.17 270.55 C156.84 192.08, 225.29 113.6, 279.4 49.42 M97.8 270.52 C148.88 210.38, 203.54 147.74, 279.53 61.46 M97.8 270.52 C154.05 204.75, 211.52 137.73, 279.53 61.46 M108.43 270.48 C152.18 223.05, 194.77 171.98, 279.66 73.5 M108.43 270.48 C166.31 203.41, 224.54 134.34, 279.66 73.5 M119.06 270.45 C180.09 199.59, 242.24 129.58, 279.79 85.55 M119.06 270.45 C179.35 200.34, 240.92 131.1, 279.79 85.55 M129.69 270.41 C188.49 199.58, 249.7 133.39, 279.93 97.59 M129.69 270.41 C159.48 234.9, 190.61 198.83, 279.93 97.59 M140.32 270.38 C194.47 206.57, 249.74 144.23, 279.4 110.38 M140.32 270.38 C181.58 223.57, 221.03 176.79, 279.4 110.38 M150.95 270.35 C189.78 226.15, 227.28 178.46, 279.54 122.42 M150.95 270.35 C198.84 216.57, 244.66 160.56, 279.54 122.42 M160.92 271.07 C190.65 239.42, 218.32 206.07, 279.67 134.46 M160.92 271.07 C188.12 238.31, 216.39 205.63, 279.67 134.46 M171.55 271.03 C205.79 230.9, 239.09 194.44, 279.8 146.5 M171.55 271.03 C213.85 223.61, 256.95 173.76, 279.8 146.5 M182.18 271 C205.51 247.32, 223.82 222.29, 279.94 158.54 M182.18 271 C202.04 247.76, 221.99 224.33, 279.94 158.54 M192.81 270.96 C216.59 243.5, 242.36 216.93, 279.41 171.34 M192.81 270.96 C223.48 235.93, 256.14 198.54, 279.41 171.34 M203.44 270.93 C229.31 242.81, 250.03 213.64, 279.55 183.38 M203.44 270.93 C222.08 250.97, 239.54 230.99, 279.55 183.38 M214.07 270.89 C225.16 256.95, 239.96 242.25, 279.68 195.42 M214.07 270.89 C234.49 247.69, 253.22 224.31, 279.68 195.42 M224.7 270.86 C241.34 254.44, 258.32 232.9, 279.81 207.46 M224.7 270.86 C244.46 247, 264.88 223.34, 279.81 207.46 M235.33 270.82 C250.34 252.77, 267.13 232.5, 279.29 220.26 M235.33 270.82 C250.98 252.79, 266.66 235.68, 279.29 220.26 M245.31 271.54 C253.53 261.65, 264.39 249.31, 274.83 237.58 M245.31 271.54 C254.09 261.87, 262.54 250.92, 274.83 237.58 M257.91 269.25 C262.81 263.63, 265.67 261.44, 273 251.89 M257.91 269.25 C262.82 262.84, 269.12 255.55, 273 251.89" stroke="#e9ecef" stroke-width="1" fill="none"></path><path d="M32 0 C94.51 1.19, 153.04 0.89, 241.9 0 M32 0 C96.19 -1.3, 160.63 -2.16, 241.9 0 M241.9 0 C264.07 1.42, 273.54 9.24, 273.9 32 M241.9 0 C262.31 0.44, 276.03 9.2, 273.9 32 M273.9 32 C276.49 80.82, 274.44 130.05, 273.9 236.94 M273.9 32 C272.06 78.48, 272.8 125.61, 273.9 236.94 M273.9 236.94 C274.84 257.13, 261.66 267.02, 241.9 268.94 M273.9 236.94 C273.71 257.84, 261.22 266.98, 241.9 268.94 M241.9 268.94 C186.42 270, 133.09 267.06, 32 268.94 M241.9 268.94 C189.4 268.6, 136.84 269.46, 32 268.94 M32 268.94 C10.81 270.14, 1.05 259.9, 0 236.94 M32 268.94 C9.28 269.9, 1.26 256.77, 0 236.94 M0 236.94 C-1.78 177, 0.83 119.95, 0 32 M0 236.94 C1.95 180.1, 1.82 121.21, 0 32 M0 32 C-1.64 10.58, 10.52 0.42, 32 0 M0 32 C-0.62 8.79, 10.01 0.93, 32 0" stroke="#868e96" stroke-width="2" fill="none"></path></g><g transform="translate(703.1620314860086 403.87428924618723) rotate(0 44.715980529785156 17.5)"><text x="44.715980529785156" y="24.528" font-family="Virgil, Segoe UI Emoji" font-size="28px" fill="#868e96" text-anchor="middle" style="white-space: pre;" direction="ltr" dominant-baseline="alphabetic">Worker</text></g><g stroke-linecap="round" transform="translate(314.95301893509395 197.4758517461873) rotate(0 136.94946801028652 63.82102325381274)"><path d="M4.79 12.12 C4.79 12.12, 4.79 12.12, 4.79 12.12 M4.79 12.12 C4.79 12.12, 4.79 12.12, 4.79 12.12 M0.33 29.44 C7.81 19.64, 18.16 9.42, 24.61 1.51 M0.33 29.44 C7.9 20.79, 15.62 12.15, 24.61 1.51 M0.47 41.48 C10.44 30.06, 15.32 23.24, 36.55 -0.03 M0.47 41.48 C10.29 31.09, 20.43 20.13, 36.55 -0.03 M0.6 53.52 C11.62 41.24, 20.99 26.27, 46.52 0.69 M0.6 53.52 C18.02 32.19, 36.59 11.03, 46.52 0.69 M0.73 65.56 C18.15 44.35, 40.52 21.32, 57.15 0.66 M0.73 65.56 C20.95 41.18, 42.04 17.93, 57.15 0.66 M0.86 77.6 C20.01 57.11, 37.79 34.81, 67.78 0.62 M0.86 77.6 C20.83 56, 39.82 34.46, 67.78 0.62 M0.34 90.4 C17.46 72.09, 35.62 50.05, 78.41 0.59 M0.34 90.4 C27.51 57, 56.32 24.36, 78.41 0.59 M0.48 102.44 C31.33 67.33, 63.87 30.29, 89.04 0.55 M0.48 102.44 C21.28 80.27, 40.62 56.38, 89.04 0.55 M3.23 111.46 C27.22 84.38, 53.46 51.64, 99.67 0.52 M3.23 111.46 C26.29 86.21, 47.62 62.36, 99.67 0.52 M7.96 118.22 C45.6 75.95, 81.9 32.7, 110.3 0.48 M7.96 118.22 C39.36 84.06, 68.93 50.39, 110.3 0.48 M14 123.47 C45.19 89.64, 75.06 57.88, 120.93 0.45 M14 123.47 C43.18 90.78, 69.79 57.58, 120.93 0.45 M22 126.45 C53.13 93.4, 85.45 54.2, 131.56 0.42 M22 126.45 C63.61 79.64, 103.81 33.16, 131.56 0.42 M31.32 127.93 C64.27 89.49, 95.86 51.94, 142.19 0.38 M31.32 127.93 C64.19 90.53, 98.74 49.83, 142.19 0.38 M41.95 127.89 C70.21 93.59, 101.03 60.95, 152.82 0.35 M41.95 127.89 C81.27 81.26, 123.26 33.57, 152.82 0.35 M52.58 127.86 C95.26 79.36, 139.83 31.4, 163.45 0.31 M52.58 127.86 C86.3 90.03, 120.74 50.98, 163.45 0.31 M63.21 127.82 C101.81 84.76, 135.93 46.16, 174.08 0.28 M63.21 127.82 C88.71 98.95, 113.81 70.19, 174.08 0.28 M73.84 127.79 C101.32 95.91, 124.62 67.92, 184.71 0.24 M73.84 127.79 C108.74 86.28, 143.75 47.75, 184.71 0.24 M84.47 127.75 C114.26 91.15, 145.16 53.49, 195.34 0.21 M84.47 127.75 C118.19 89.21, 151.09 51.9, 195.34 0.21 M94.44 128.47 C135.43 83.38, 174.66 38.05, 205.97 0.17 M94.44 128.47 C130.55 84.18, 169.05 40.66, 205.97 0.17 M105.07 128.44 C131.82 99.97, 155.78 69.99, 216.6 0.14 M105.07 128.44 C142.57 82.92, 181.98 38.98, 216.6 0.14 M115.7 128.41 C151.31 89.04, 184.66 48.21, 227.23 0.1 M115.7 128.41 C147.43 92.13, 178.24 57.48, 227.23 0.1 M126.33 128.37 C169.79 77.57, 213.79 27.92, 237.86 0.07 M126.33 128.37 C170.93 77.58, 216.52 25.79, 237.86 0.07 M136.96 128.34 C170.33 93.42, 200.99 55.48, 247.18 1.55 M136.96 128.34 C178.38 77.86, 221.22 28.9, 247.18 1.55 M147.59 128.3 C188.93 85.68, 225.54 39.25, 257.16 2.27 M147.59 128.3 C175.03 95.19, 204.69 62.94, 257.16 2.27 M158.22 128.27 C186.78 96.01, 213.57 64.19, 263.85 6.76 M158.22 128.27 C182.51 102.79, 203.94 76.61, 263.85 6.76 M168.85 128.23 C210.32 82.35, 251 35.06, 269.23 12.76 M168.85 128.23 C205.25 86.66, 243.16 43.72, 269.23 12.76 M179.48 128.2 C204.11 95.44, 233.38 65.66, 272.65 21.03 M179.48 128.2 C200.49 104.65, 221.49 79.97, 272.65 21.03 M190.11 128.16 C222.02 94.17, 250.18 61.31, 273.43 32.32 M190.11 128.16 C223.59 91.14, 256.68 51.98, 273.43 32.32 M200.74 128.13 C215.41 109.57, 228.78 92.82, 273.57 44.36 M200.74 128.13 C218.46 107.29, 235.76 88.14, 273.57 44.36 M211.37 128.09 C233.51 103.74, 257.02 74.21, 273.7 56.4 M211.37 128.09 C226.84 112.2, 239.35 96.07, 273.7 56.4 M222.01 128.06 C236.94 107.65, 256.38 87.65, 273.83 68.44 M222.01 128.06 C240.8 106.63, 260.26 84.46, 273.83 68.44 M232.64 128.03 C247.06 114.04, 257.19 98.96, 273.97 80.48 M232.64 128.03 C248.01 110.44, 263.44 93.82, 273.97 80.48 M243.92 127.24 C255.12 115.16, 265.13 100.74, 274.1 92.52 M243.92 127.24 C251.57 118.08, 260.58 109.32, 274.1 92.52 M255.86 125.69 C259.8 121.76, 263.74 116.29, 272.92 106.07 M255.86 125.69 C261.39 117.77, 268.31 112.4, 272.92 106.07" stroke="#e9ecef" stroke-width="1" fill="none"></path><path d="M31.91 0 C106.63 -0.81, 183.07 -2.04, 241.99 0 M31.91 0 C107.89 -0.48, 183.27 -0.5, 241.99 0 M241.99 0 C264.5 -0.43, 273.89 11.26, 273.9 31.91 M241.99 0 C261.01 1.95, 273.24 10.26, 273.9 31.91 M273.9 31.91 C276.03 51.53, 273.85 67.43, 273.9 95.73 M273.9 31.91 C272.84 49.46, 273.56 68.07, 273.9 95.73 M273.9 95.73 C271.96 117.76, 263.24 125.98, 241.99 127.64 M273.9 95.73 C274.36 116.57, 264.03 127.07, 241.99 127.64 M241.99 127.64 C180.22 125.42, 119.11 125, 31.91 127.64 M241.99 127.64 C187.47 127.03, 132.86 128.46, 31.91 127.64 M31.91 127.64 C11.54 125.99, 0.77 118.72, 0 95.73 M31.91 127.64 C9.84 129.89, 1.45 116.85, 0 95.73 M0 95.73 C0.31 78.38, 0.23 61.89, 0 31.91 M0 95.73 C0.8 78.91, -0.19 63.07, 0 31.91 M0 31.91 C-1.41 10.75, 9.01 0.17, 31.91 0 M0 31.91 C1.47 8.8, 12.49 1.6, 31.91 0" stroke="#868e96" stroke-width="2" fill="none"></path></g><g transform="translate(395.27250495075157 243.79687500000006) rotate(0 56.629981994628906 17.5)"><text x="56.629981994628906" y="24.528" font-family="Virgil, Segoe UI Emoji" font-size="28px" fill="#868e96" text-anchor="middle" style="white-space: pre;" direction="ltr" dominant-baseline="alphabetic">Manager</text></g><g stroke-linecap="round" transform="translate(25.321620651080366 487.15234375) rotate(0 50.623046875 52.626953125)"><path d="M6.08 6.61 C6.08 6.61, 6.08 6.61, 6.08 6.61 M6.08 6.61 C6.08 6.61, 6.08 6.61, 6.08 6.61 M0.97 24.69 C6.01 15.53, 14.36 7.44, 21.96 0.54 M0.97 24.69 C8.27 14.2, 17.84 5.64, 21.96 0.54 M1.1 36.73 C15.03 21.83, 26.36 9.57, 32.59 0.5 M1.1 36.73 C11.44 26.15, 19.07 14.75, 32.59 0.5 M0.58 49.53 C12.86 35.56, 29.16 17.29, 43.22 0.47 M0.58 49.53 C12.2 36.36, 25.33 21.46, 43.22 0.47 M0.71 61.57 C18.95 41.35, 31.9 21.08, 53.85 0.44 M0.71 61.57 C22.18 36.78, 43.97 11.49, 53.85 0.44 M0.84 73.61 C18.26 54.43, 31.73 35.35, 63.82 1.16 M0.84 73.61 C17.86 53.63, 36.15 32.51, 63.82 1.16 M1.63 84.89 C25.12 54.14, 50.82 25.84, 74.45 1.12 M1.63 84.89 C27.62 57.31, 52.26 27.81, 74.45 1.12 M3.73 94.67 C25.56 67.09, 48.48 43.75, 84.43 1.84 M3.73 94.67 C33.58 62.19, 61.4 30.13, 84.43 1.84 M9.11 100.67 C32.28 75.67, 55 52.18, 92.43 4.83 M9.11 100.67 C30.72 74.71, 53.59 48.02, 92.43 4.83 M16.46 104.41 C46.36 70.04, 75.12 39.16, 98.47 10.07 M16.46 104.41 C36.8 79.66, 57.72 56.41, 98.47 10.07 M26.44 105.13 C52.62 76.77, 75.96 48.19, 100.57 19.85 M26.44 105.13 C43.5 85.05, 62.34 63.45, 100.57 19.85 M37.07 105.1 C53.67 85.99, 68.72 70.54, 102.02 30.38 M37.07 105.1 C61.05 75.8, 87.77 47.64, 102.02 30.38 M47.7 105.06 C69.98 82.21, 89.23 56.63, 101.5 43.18 M47.7 105.06 C60.18 89.2, 74.26 73.4, 101.5 43.18 M57.67 105.78 C73.24 88.22, 88.2 72.65, 101.63 55.22 M57.67 105.78 C75.1 85.23, 91.28 65.46, 101.63 55.22 M68.3 105.75 C80.22 93.78, 92.87 80.22, 101.76 67.26 M68.3 105.75 C74.76 97.97, 81.88 88.6, 101.76 67.26 M79.59 104.96 C85.74 98.82, 92.27 92.22, 101.89 79.3 M79.59 104.96 C85.73 95.99, 94.48 89.13, 101.89 79.3" stroke="#e9ecef" stroke-width="1" fill="none"></path><path d="M25.31 0 C36.7 0.96, 47.67 -0.08, 75.93 0 M25.31 0 C42.62 0.68, 61.34 -0.59, 75.93 0 M75.93 0 C92.34 -0.86, 101.55 6.89, 101.25 25.31 M75.93 0 C94.79 1.94, 103.18 8.28, 101.25 25.31 M101.25 25.31 C100.84 44.35, 99.99 62.61, 101.25 79.94 M101.25 25.31 C100.9 36.78, 100.76 48.59, 101.25 79.94 M101.25 79.94 C102.04 95.16, 92.46 106.22, 75.93 105.25 M101.25 79.94 C100.09 96.88, 94.39 107.18, 75.93 105.25 M75.93 105.25 C61.33 104.7, 47.17 104.41, 25.31 105.25 M75.93 105.25 C65.76 104.14, 55.48 104.56, 25.31 105.25 M25.31 105.25 C10.32 103.95, -1.72 95.03, 0 79.94 M25.31 105.25 C10.06 104.01, -1.96 96.88, 0 79.94 M0 79.94 C-0.89 59.23, -1.47 37.07, 0 25.31 M0 79.94 C-0.85 62.83, -0.67 47.26, 0 25.31 M0 25.31 C-0.88 6.75, 8.27 -0.8, 25.31 0 M0 25.31 C-1.74 10.23, 6.75 -0.1, 25.31 0" stroke="#868e96" stroke-width="2" fill="none"></path></g><g transform="translate(40.930682845904585 522.279296875) rotate(0 35.01398468017578 17.5)"><text x="35.01398468017578" y="24.528" font-family="Virgil, Segoe UI Emoji" font-size="28px" fill="#868e96" text-anchor="middle" style="white-space: pre;" direction="ltr" dominant-baseline="alphabetic">Task</text></g><g stroke-linecap="round" transform="translate(151.38216752608037 484.896484375) rotate(0 50.623046875 52.626953125)"><path d="M6.08 6.61 C6.08 6.61, 6.08 6.61, 6.08 6.61 M6.08 6.61 C6.08 6.61, 6.08 6.61, 6.08 6.61 M0.97 24.69 C5.65 16.58, 13.23 11.48, 21.96 0.54 M0.97 24.69 C7.69 17.7, 13.45 8.47, 21.96 0.54 M1.1 36.73 C13.82 22.18, 27.94 8.6, 32.59 0.5 M1.1 36.73 C8.08 28.35, 15.49 20.22, 32.59 0.5 M0.58 49.53 C18 32.3, 32.72 12.27, 43.22 0.47 M0.58 49.53 C9.02 38.9, 18.48 27.62, 43.22 0.47 M0.71 61.57 C13.26 49.53, 22.32 36.69, 53.85 0.44 M0.71 61.57 C20.05 40.49, 36.92 19.43, 53.85 0.44 M0.84 73.61 C18.96 56.33, 37.08 36.74, 63.82 1.16 M0.84 73.61 C22.03 47.89, 43.36 22.79, 63.82 1.16 M1.63 84.89 C23.44 62.88, 42.97 37.46, 74.45 1.12 M1.63 84.89 C24.57 60.35, 45.74 35.78, 74.45 1.12 M3.73 94.67 C32.09 58.14, 63.18 25.33, 84.43 1.84 M3.73 94.67 C33.04 60.88, 60.83 28.4, 84.43 1.84 M9.11 100.67 C38.19 67.62, 64.43 37.23, 92.43 4.83 M9.11 100.67 C29.63 76.56, 51.63 51.76, 92.43 4.83 M16.46 104.41 C31.54 84.93, 49.51 66.06, 98.47 10.07 M16.46 104.41 C35.25 83.07, 53.1 60.75, 98.47 10.07 M26.44 105.13 C47.26 80.25, 68.87 57.46, 100.57 19.85 M26.44 105.13 C44.21 85.79, 63.11 64.77, 100.57 19.85 M37.07 105.1 C54.07 88.01, 69.3 67.8, 102.02 30.38 M37.07 105.1 C53.16 85.96, 68.68 69.69, 102.02 30.38 M47.7 105.06 C62.98 91.19, 74.4 76.09, 101.5 43.18 M47.7 105.06 C64.18 87.25, 79.26 68.38, 101.5 43.18 M57.67 105.78 C67.15 94.29, 77.21 83.97, 101.63 55.22 M57.67 105.78 C67.78 94.31, 77.55 82.81, 101.63 55.22 M68.3 105.75 C80.83 88.53, 93.11 74.95, 101.76 67.26 M68.3 105.75 C78 94.85, 86.95 85.17, 101.76 67.26 M79.59 104.96 C87.52 98.18, 91.09 90.61, 101.89 79.3 M79.59 104.96 C87.88 96.34, 96.28 85.97, 101.89 79.3" stroke="#e9ecef" stroke-width="1" fill="none"></path><path d="M25.31 0 C44.53 0.17, 60.89 1.89, 75.93 0 M25.31 0 C38.85 0.19, 52.57 1.1, 75.93 0 M75.93 0 C92.29 0.5, 100.64 6.49, 101.25 25.31 M75.93 0 C92.89 -2.13, 100.3 9.67, 101.25 25.31 M101.25 25.31 C99.44 41.43, 101.91 55.56, 101.25 79.94 M101.25 25.31 C101.45 42.42, 102.25 60.69, 101.25 79.94 M101.25 79.94 C99.85 98.74, 93.16 106.62, 75.93 105.25 M101.25 79.94 C99.48 98.91, 91.53 106.38, 75.93 105.25 M75.93 105.25 C59.66 106.14, 41.93 104.61, 25.31 105.25 M75.93 105.25 C61.24 105.63, 47.48 105.85, 25.31 105.25 M25.31 105.25 C8.25 103.85, -0.38 98.14, 0 79.94 M25.31 105.25 C10.33 107.34, -0.02 98.36, 0 79.94 M0 79.94 C-0.17 59.12, 0.9 41.57, 0 25.31 M0 79.94 C-0.46 66.63, 0.58 51.92, 0 25.31 M0 25.31 C0.86 7.83, 9.29 1.05, 25.31 0 M0 25.31 C2.08 7.21, 10.54 -0.01, 25.31 0" stroke="#868e96" stroke-width="2" fill="none"></path></g><g transform="translate(166.99122972090458 520.0234375) rotate(0 35.01398468017578 17.5)"><text x="35.01398468017578" y="24.528" font-family="Virgil, Segoe UI Emoji" font-size="28px" fill="#868e96" text-anchor="middle" style="white-space: pre;" direction="ltr" dominant-baseline="alphabetic">Task</text></g><g stroke-linecap="round" transform="translate(326.51498002608037 485.943359375) rotate(0 50.623046875 52.626953125)"><path d="M6.08 6.61 C6.08 6.61, 6.08 6.61, 6.08 6.61 M6.08 6.61 C6.08 6.61, 6.08 6.61, 6.08 6.61 M0.97 24.69 C10.43 15.84, 16.97 5.54, 21.96 0.54 M0.97 24.69 C5.89 19.64, 10.77 14.06, 21.96 0.54 M1.1 36.73 C8.86 25.7, 20.11 15.45, 32.59 0.5 M1.1 36.73 C11.04 23.58, 22.66 12.5, 32.59 0.5 M0.58 49.53 C13.09 33.32, 28.12 18.76, 43.22 0.47 M0.58 49.53 C17.68 30.73, 34.37 9.79, 43.22 0.47 M0.71 61.57 C21.62 37.52, 43.32 12.49, 53.85 0.44 M0.71 61.57 C16.93 42.54, 32.02 23.69, 53.85 0.44 M0.84 73.61 C20.11 51.26, 41.47 26.08, 63.82 1.16 M0.84 73.61 C20.14 53.72, 37.78 31.93, 63.82 1.16 M1.63 84.89 C27.37 56.91, 50.05 25.71, 74.45 1.12 M1.63 84.89 C26.11 55.4, 53.57 24.14, 74.45 1.12 M3.73 94.67 C24.21 71.94, 43.35 50.38, 84.43 1.84 M3.73 94.67 C23.2 71.8, 41.8 48.82, 84.43 1.84 M9.11 100.67 C34.53 71.39, 60.88 42.62, 92.43 4.83 M9.11 100.67 C31.88 74.89, 54.12 51.47, 92.43 4.83 M16.46 104.41 C44.66 68.43, 76.51 34.54, 98.47 10.07 M16.46 104.41 C34.92 82.85, 54.36 60.62, 98.47 10.07 M26.44 105.13 C43 84.48, 59.02 68.54, 100.57 19.85 M26.44 105.13 C51.28 77.25, 74.79 48.57, 100.57 19.85 M37.07 105.1 C62.17 76.54, 84.35 48.69, 102.02 30.38 M37.07 105.1 C52.09 87.04, 67.09 68.54, 102.02 30.38 M47.7 105.06 C64.04 85.41, 77.91 68.51, 101.5 43.18 M47.7 105.06 C67.32 81.4, 88.36 58.33, 101.5 43.18 M57.67 105.78 C69.63 93.25, 79.35 81.37, 101.63 55.22 M57.67 105.78 C69.68 93.1, 80.27 79.26, 101.63 55.22 M68.3 105.75 C82.13 91.57, 93.32 78.98, 101.76 67.26 M68.3 105.75 C79.65 91.24, 92.65 77.88, 101.76 67.26 M79.59 104.96 C86.28 99.22, 91.2 92.56, 101.89 79.3 M79.59 104.96 C87.57 96.53, 94.97 86.95, 101.89 79.3" stroke="#e9ecef" stroke-width="1" fill="none"></path><path d="M25.31 0 C43.7 0.65, 61.54 1.06, 75.93 0 M25.31 0 C42.78 0.21, 61.38 0.69, 75.93 0 M75.93 0 C91.75 1.83, 101.23 7.61, 101.25 25.31 M75.93 0 C90.55 -1.01, 102.34 9.46, 101.25 25.31 M101.25 25.31 C102.84 47.99, 99.49 68.04, 101.25 79.94 M101.25 25.31 C100.94 46.16, 100.76 68.14, 101.25 79.94 M101.25 79.94 C100.05 96.72, 93.48 105.64, 75.93 105.25 M101.25 79.94 C102.44 97.11, 93.15 106.97, 75.93 105.25 M75.93 105.25 C65.59 105.04, 54.01 105.47, 25.31 105.25 M75.93 105.25 C54.84 105.48, 35.25 104.68, 25.31 105.25 M25.31 105.25 C8.71 104.65, 1.52 98.45, 0 79.94 M25.31 105.25 C7.79 107.31, 1.27 97.36, 0 79.94 M0 79.94 C-0.66 63.68, -0.06 49.12, 0 25.31 M0 79.94 C0.72 69.71, 0.71 57.7, 0 25.31 M0 25.31 C-0.24 9.3, 7.79 -0.13, 25.31 0 M0 25.31 C2.11 8.11, 7.41 -0.56, 25.31 0" stroke="#868e96" stroke-width="2" fill="none"></path></g><g transform="translate(342.1240422209046 521.0703125) rotate(0 35.01398468017578 17.5)"><text x="35.01398468017578" y="24.528" font-family="Virgil, Segoe UI Emoji" font-size="28px" fill="#868e96" text-anchor="middle" style="white-space: pre;" direction="ltr" dominant-baseline="alphabetic">Task</text></g><g stroke-linecap="round" transform="translate(456.79232377608037 485.763671875) rotate(0 50.623046875 52.626953125)"><path d="M6.08 6.61 C6.08 6.61, 6.08 6.61, 6.08 6.61 M6.08 6.61 C6.08 6.61, 6.08 6.61, 6.08 6.61 M0.97 24.69 C7.61 19.94, 12.27 11.89, 21.96 0.54 M0.97 24.69 C6.83 17.89, 11.84 13.71, 21.96 0.54 M1.1 36.73 C10.68 29.15, 16.58 20.41, 32.59 0.5 M1.1 36.73 C10.95 26.48, 19.55 15.08, 32.59 0.5 M0.58 49.53 C9.75 38.38, 19.5 28.41, 43.22 0.47 M0.58 49.53 C10.37 38.39, 19.84 27.24, 43.22 0.47 M0.71 61.57 C20.89 35.37, 40.96 12.82, 53.85 0.44 M0.71 61.57 C15.84 44.68, 30.06 28.93, 53.85 0.44 M0.84 73.61 C20.78 53.29, 35.98 32.34, 63.82 1.16 M0.84 73.61 C23.81 47.68, 47.02 20.26, 63.82 1.16 M1.63 84.89 C24.49 60.11, 45.36 32.4, 74.45 1.12 M1.63 84.89 C22.53 62.01, 41.47 39.1, 74.45 1.12 M3.73 94.67 C21.81 75.37, 36.73 53.75, 84.43 1.84 M3.73 94.67 C29.18 64.48, 54.18 35.78, 84.43 1.84 M9.11 100.67 C43.5 66.23, 72.92 29.37, 92.43 4.83 M9.11 100.67 C27.31 79.77, 46.77 57.48, 92.43 4.83 M16.46 104.41 C46.06 74.32, 72.43 41.17, 98.47 10.07 M16.46 104.41 C39.86 75.15, 64.03 47.96, 98.47 10.07 M26.44 105.13 C46.96 85.27, 64.32 63.84, 100.57 19.85 M26.44 105.13 C46.56 82.06, 66.83 58.45, 100.57 19.85 M37.07 105.1 C61.52 77.69, 83.69 53.44, 102.02 30.38 M37.07 105.1 C54.14 85.96, 70.6 66.17, 102.02 30.38 M47.7 105.06 C68 84.98, 86.58 63.6, 101.5 43.18 M47.7 105.06 C69.48 80.99, 89.43 56.29, 101.5 43.18 M57.67 105.78 C65.84 95.89, 76.82 82.49, 101.63 55.22 M57.67 105.78 C68.08 92.62, 79.61 79.26, 101.63 55.22 M68.3 105.75 C81.47 93.96, 92.33 78.16, 101.76 67.26 M68.3 105.75 C75.07 97.86, 82.81 89.65, 101.76 67.26 M79.59 104.96 C84.1 100.3, 92.26 93.24, 101.89 79.3 M79.59 104.96 C85.65 97.71, 92.56 88.81, 101.89 79.3" stroke="#e9ecef" stroke-width="1" fill="none"></path><path d="M25.31 0 C36.95 -1.76, 48.03 0.42, 75.93 0 M25.31 0 C41.57 -0.2, 57.9 -0.41, 75.93 0 M75.93 0 C92.67 1.84, 100.96 7.55, 101.25 25.31 M75.93 0 C92.25 -0.76, 98.99 6.24, 101.25 25.31 M101.25 25.31 C102.85 44.31, 103.48 61.31, 101.25 79.94 M101.25 25.31 C100.67 40.99, 101.88 56.04, 101.25 79.94 M101.25 79.94 C103.14 97.87, 93.57 104.66, 75.93 105.25 M101.25 79.94 C101.11 95.21, 92.85 107.43, 75.93 105.25 M75.93 105.25 C61.64 105.59, 45.67 104.09, 25.31 105.25 M75.93 105.25 C66.19 105.5, 54.4 105.67, 25.31 105.25 M25.31 105.25 C6.45 103.74, 0 97.6, 0 79.94 M25.31 105.25 C8.51 106.26, 0.98 96.6, 0 79.94 M0 79.94 C1.39 65.11, -0.47 53.16, 0 25.31 M0 79.94 C1.1 59.35, -0.43 40.12, 0 25.31 M0 25.31 C-0.43 8.94, 6.92 0.13, 25.31 0 M0 25.31 C1.6 9.51, 9.29 -0.13, 25.31 0" stroke="#868e96" stroke-width="2" fill="none"></path></g><g transform="translate(472.4013859709046 520.890625) rotate(0 35.01398468017578 17.5)"><text x="35.01398468017578" y="24.528" font-family="Virgil, Segoe UI Emoji" font-size="28px" fill="#868e96" text-anchor="middle" style="white-space: pre;" direction="ltr" dominant-baseline="alphabetic">Task</text></g><g stroke-linecap="round" transform="translate(644.0891987760804 483.517578125) rotate(0 50.623046875 52.626953125)"><path d="M6.08 6.61 C6.08 6.61, 6.08 6.61, 6.08 6.61 M6.08 6.61 C6.08 6.61, 6.08 6.61, 6.08 6.61 M0.97 24.69 C5.71 19.64, 14.62 10.21, 21.96 0.54 M0.97 24.69 C9.53 14.79, 17.98 6.39, 21.96 0.54 M1.1 36.73 C5.3 30.82, 15.47 21.4, 32.59 0.5 M1.1 36.73 C14.05 22.19, 24.79 8.07, 32.59 0.5 M0.58 49.53 C17.71 32.76, 34.67 13.14, 43.22 0.47 M0.58 49.53 C17.05 31.27, 33.15 12.9, 43.22 0.47 M0.71 61.57 C11.75 48.11, 24.5 32.56, 53.85 0.44 M0.71 61.57 C20.42 39.85, 39.68 17.45, 53.85 0.44 M0.84 73.61 C14.9 56.98, 33.18 38.61, 63.82 1.16 M0.84 73.61 C23.33 46.44, 48.14 17.45, 63.82 1.16 M1.63 84.89 C26.6 56.27, 50.6 30.62, 74.45 1.12 M1.63 84.89 C20.11 62.64, 38.84 41.46, 74.45 1.12 M3.73 94.67 C21.26 75.54, 40.23 54.37, 84.43 1.84 M3.73 94.67 C28.15 67.12, 51.81 40.72, 84.43 1.84 M9.11 100.67 C41.3 65.63, 70.67 34.34, 92.43 4.83 M9.11 100.67 C38.61 67.18, 66.77 34.66, 92.43 4.83 M16.46 104.41 C34.7 84.07, 53.94 60.82, 98.47 10.07 M16.46 104.41 C43.87 74.83, 70.95 41.68, 98.47 10.07 M26.44 105.13 C54.56 72.1, 80.19 39.92, 100.57 19.85 M26.44 105.13 C51.46 76.39, 75.84 48.62, 100.57 19.85 M37.07 105.1 C52.18 88.62, 66.3 69.87, 102.02 30.38 M37.07 105.1 C53.07 87.77, 69.8 67.52, 102.02 30.38 M47.7 105.06 C62.69 83.74, 82.62 64.68, 101.5 43.18 M47.7 105.06 C65.19 83.11, 83.35 63.3, 101.5 43.18 M57.67 105.78 C69.12 91.57, 78.82 81.91, 101.63 55.22 M57.67 105.78 C70.89 90.04, 84.75 75.33, 101.63 55.22 M68.3 105.75 C76.81 95.02, 88.15 82.94, 101.76 67.26 M68.3 105.75 C78.72 92.41, 90.2 79.45, 101.76 67.26 M79.59 104.96 C84.28 95.49, 92.75 89.4, 101.89 79.3 M79.59 104.96 C84.74 98.49, 91.87 90.93, 101.89 79.3" stroke="#e9ecef" stroke-width="1" fill="none"></path><path d="M25.31 0 C41.07 1.27, 54.87 -1.01, 75.93 0 M25.31 0 C43.21 0.22, 59.41 -1.04, 75.93 0 M75.93 0 C93.91 1.14, 103.21 6.62, 101.25 25.31 M75.93 0 C95.05 1.57, 100.04 6.92, 101.25 25.31 M101.25 25.31 C101.31 41.54, 101.48 53.54, 101.25 79.94 M101.25 25.31 C101.43 43.88, 100.85 63.3, 101.25 79.94 M101.25 79.94 C100.33 95.97, 92.97 104.16, 75.93 105.25 M101.25 79.94 C103.21 95.29, 91.96 103.06, 75.93 105.25 M75.93 105.25 C62.98 106.75, 50.44 104.89, 25.31 105.25 M75.93 105.25 C61.79 104.56, 47.22 104.5, 25.31 105.25 M25.31 105.25 C9.35 103.83, 0.89 96.66, 0 79.94 M25.31 105.25 C8.11 103.39, 0.87 98.36, 0 79.94 M0 79.94 C1.68 62.43, 1.75 44.18, 0 25.31 M0 79.94 C-0.21 59.47, -0.41 38.1, 0 25.31 M0 25.31 C0.9 7.95, 7.41 -0.6, 25.31 0 M0 25.31 C-1.48 8.23, 10.06 -0.8, 25.31 0" stroke="#868e96" stroke-width="2" fill="none"></path></g><g transform="translate(659.6982609709046 518.64453125) rotate(0 35.01398468017578 17.5)"><text x="35.01398468017578" y="24.528" font-family="Virgil, Segoe UI Emoji" font-size="28px" fill="#868e96" text-anchor="middle" style="white-space: pre;" direction="ltr" dominant-baseline="alphabetic">Task</text></g><g stroke-linecap="round"><g transform="translate(447.94271440108037 327.625) rotate(0 -153.3046875 32.25390625)"><path d="M0.65 0.34 C-50.51 11.22, -254.84 54.3, -306.13 64.88 M-0.47 -0.53 C-51.81 10.01, -255.55 52.08, -306.82 62.95" stroke="#868e96" stroke-width="2" fill="none"></path></g><g transform="translate(447.94271440108037 327.625) rotate(0 -153.3046875 32.25390625)"><path d="M-285.57 49.78 C-292.83 55.52, -300.55 58.72, -306.82 62.95 M-285.57 49.78 C-290.64 52.99, -294.87 54.91, -306.82 62.95" stroke="#868e96" stroke-width="2" fill="none"></path></g><g transform="translate(447.94271440108037 327.625) rotate(0 -153.3046875 32.25390625)"><path d="M-282.08 66.52 C-290.56 66.15, -299.56 63.23, -306.82 62.95 M-282.08 66.52 C-288 65.7, -293.06 63.62, -306.82 62.95" stroke="#868e96" stroke-width="2" fill="none"></path></g></g><mask></mask><g stroke-linecap="round"><g transform="translate(454.25130815108037 334.3203125) rotate(0 -1.150390625 28.46484375)"><path d="M-0.01 0.32 C-0.25 9.81, -0.75 46.36, -1.29 55.78 M-1.48 -0.55 C-1.79 9.14, -1.81 46.94, -1.71 56.72" stroke="#868e96" stroke-width="2" fill="none"></path></g><g transform="translate(454.25130815108037 334.3203125) rotate(0 -1.150390625 28.46484375)"><path d="M-10.34 33.26 C-7.35 42.23, -7.12 46.21, -1.71 56.72 M-10.34 33.26 C-7.83 40.84, -6.08 47.64, -1.71 56.72" stroke="#868e96" stroke-width="2" fill="none"></path></g><g transform="translate(454.25130815108037 334.3203125) rotate(0 -1.150390625 28.46484375)"><path d="M6.76 33.2 C4.45 42.18, -0.63 46.19, -1.71 56.72 M6.76 33.2 C4.23 40.74, 0.95 47.56, -1.71 56.72" stroke="#868e96" stroke-width="2" fill="none"></path></g></g><mask></mask><g stroke-linecap="round"><g transform="translate(451.93880815108037 325.6015625) rotate(0 153.140625 30.908203125)"><path d="M-0.33 0.88 C50.44 11.07, 253.98 50.97, 305.17 61.13 M1.69 0.29 C52.78 10.63, 256.53 51.82, 307.3 62.31" stroke="#868e96" stroke-width="2" fill="none"></path></g><g transform="translate(451.93880815108037 325.6015625) rotate(0 153.140625 30.908203125)"><path d="M282.57 65.99 C292.5 62.95, 298.37 64.36, 307.3 62.31 M282.57 65.99 C289.21 65.46, 298.53 64.12, 307.3 62.31" stroke="#868e96" stroke-width="2" fill="none"></path></g><g transform="translate(451.93880815108037 325.6015625) rotate(0 153.140625 30.908203125)"><path d="M285.99 49.24 C294.74 51.92, 299.45 59.07, 307.3 62.31 M285.99 49.24 C291.49 53.81, 299.76 57.6, 307.3 62.31" stroke="#868e96" stroke-width="2" fill="none"></path></g></g><mask></mask><g stroke-linecap="round" transform="translate(213.19662065108037 10) rotate(0 99.7265625 45.69921875)"><path d="M2.97 9.21 C2.97 9.21, 2.97 9.21, 2.97 9.21 M2.97 9.21 C2.97 9.21, 2.97 9.21, 2.97 9.21 M0.48 24.27 C6.15 15.54, 16.48 7.37, 20.82 0.87 M0.48 24.27 C7.59 16.64, 14.8 7.86, 20.82 0.87 M0.61 36.31 C13.6 24.85, 24.94 9.17, 32.1 0.08 M0.61 36.31 C11.32 24.66, 21.69 13.02, 32.1 0.08 M0.74 48.35 C17.46 29.05, 34.9 11.59, 42.73 0.05 M0.74 48.35 C15.44 32.67, 29 17.15, 42.73 0.05 M0.88 60.39 C19.65 39.42, 37.01 16.37, 53.36 0.01 M0.88 60.39 C14.18 45.65, 28.06 28.81, 53.36 0.01 M1.01 72.43 C24.97 43.47, 49.12 17.72, 63.99 -0.02 M1.01 72.43 C17.94 53.14, 35.42 33.59, 63.99 -0.02 M3.11 82.21 C31.14 51.13, 56.52 17.07, 74.62 -0.06 M3.11 82.21 C30.62 49.75, 57.78 18.96, 74.62 -0.06 M8.49 88.21 C38.18 53.56, 66.66 23.11, 85.25 -0.09 M8.49 88.21 C24.87 69.03, 40.15 51.58, 85.25 -0.09 M17.16 90.44 C45.74 59.52, 73.16 29.02, 95.88 -0.13 M17.16 90.44 C37.83 66.02, 60.23 42.62, 95.88 -0.13 M27.13 91.16 C58.18 59.81, 86.24 23.51, 106.51 -0.16 M27.13 91.16 C44.38 71.55, 62.43 50.18, 106.51 -0.16 M37.76 91.12 C64.1 59.03, 91.22 30.01, 117.14 -0.2 M37.76 91.12 C55.21 69.05, 73.92 49.67, 117.14 -0.2 M48.39 91.09 C68.48 69.82, 89.42 45.69, 127.77 -0.23 M48.39 91.09 C77.76 55.23, 109.34 20.47, 127.77 -0.23 M58.36 91.81 C84.57 63.75, 110.56 33.39, 138.4 -0.26 M58.36 91.81 C79.75 67.16, 101.98 41.42, 138.4 -0.26 M68.99 91.78 C88.93 67.03, 108.08 46.61, 149.03 -0.3 M68.99 91.78 C85.71 72.67, 102.48 53.7, 149.03 -0.3 M79.62 91.74 C97.28 70.91, 120.28 46.34, 159.66 -0.33 M79.62 91.74 C108.02 59.05, 135.18 26.82, 159.66 -0.33 M90.25 91.71 C118.28 58.68, 143.77 27.75, 169.64 0.39 M90.25 91.71 C105.53 72.74, 123.09 54.3, 169.64 0.39 M100.88 91.67 C124.75 64.14, 150.1 35.42, 179.61 1.11 M100.88 91.67 C125.55 62.1, 149.83 33.94, 179.61 1.11 M111.51 91.64 C128.91 74.49, 144.57 55.42, 188.27 3.34 M111.51 91.64 C138.49 60.34, 163.41 30.67, 188.27 3.34 M122.14 91.6 C150.08 59.96, 177.36 29.71, 194.97 7.83 M122.14 91.6 C149.97 60.45, 175.99 30.19, 194.97 7.83 M132.77 91.57 C151.42 70.4, 166.47 51.98, 198.38 16.1 M132.77 91.57 C157.98 62.79, 182.48 35.31, 198.38 16.1 M143.4 91.53 C156.51 76.16, 173.97 60.47, 199.83 26.63 M143.4 91.53 C165.44 67.22, 187.72 42.08, 199.83 26.63 M154.03 91.5 C167.27 80.15, 176.12 65.41, 199.96 38.67 M154.03 91.5 C167.24 74.86, 183.06 58.97, 199.96 38.67 M164.66 91.47 C171.86 82.2, 182.98 71.14, 199.44 51.47 M164.66 91.47 C171.76 81.83, 179.85 72.32, 199.44 51.47 M175.29 91.43 C180.97 85.96, 187.87 79.46, 199.57 63.51 M175.29 91.43 C183.25 81.15, 192.6 71.39, 199.57 63.51 M188.55 88.38 C191.31 85.82, 195.2 82.99, 198.39 77.06 M188.55 88.38 C191.51 85.39, 193.08 83.1, 198.39 77.06" stroke="#e9ecef" stroke-width="1" fill="none"></path><path d="M22.85 0 C75.72 -0.01, 130.02 -2.17, 176.6 0 M22.85 0 C67.34 -2.21, 111.13 -1.65, 176.6 0 M176.6 0 C190.91 -1.03, 199.63 8.14, 199.45 22.85 M176.6 0 C191.4 1.91, 200.69 7.49, 199.45 22.85 M199.45 22.85 C199.11 35.22, 198.39 46.21, 199.45 68.55 M199.45 22.85 C200.74 38.32, 198.85 51.78, 199.45 68.55 M199.45 68.55 C200.2 83.53, 192.04 92.57, 176.6 91.4 M199.45 68.55 C201.48 83.86, 192.87 93.06, 176.6 91.4 M176.6 91.4 C142.86 91.45, 109.13 92.17, 22.85 91.4 M176.6 91.4 C116.91 91.99, 58.27 92.49, 22.85 91.4 M22.85 91.4 C5.83 89.73, -1.65 83.38, 0 68.55 M22.85 91.4 C8.52 89.36, -1.24 82.18, 0 68.55 M0 68.55 C0.71 49.86, 2.03 30.96, 0 22.85 M0 68.55 C-1.07 58.3, -1.03 49.8, 0 22.85 M0 22.85 C-0.49 7.66, 7.9 0.3, 22.85 0 M0 22.85 C-0.72 5.81, 5.56 -2.18, 22.85 0" stroke="#868e96" stroke-width="2" fill="none"></path></g><g transform="translate(252.03719682295537 38.19921875) rotate(0 60.885986328125 17.5)"><text x="60.885986328125" y="24.528" font-family="Virgil, Segoe UI Emoji" font-size="28px" fill="#868e96" text-anchor="middle" style="white-space: pre;" direction="ltr" dominant-baseline="alphabetic">Web GUI</text></g><g stroke-linecap="round" transform="translate(482.30208940108037 10) rotate(0 99.7265625 45.69921875)"><path d="M2.97 9.21 C2.97 9.21, 2.97 9.21, 2.97 9.21 M2.97 9.21 C2.97 9.21, 2.97 9.21, 2.97 9.21 M0.48 24.27 C4.85 16.93, 10.29 9.9, 20.82 0.87 M0.48 24.27 C6.13 17.93, 10.84 10.92, 20.82 0.87 M0.61 36.31 C11.35 21.19, 22.62 9.94, 32.1 0.08 M0.61 36.31 C9.92 26.42, 20.3 14.55, 32.1 0.08 M0.74 48.35 C11.67 36.78, 20.98 26.08, 42.73 0.05 M0.74 48.35 C8.6 37.07, 18.75 25.68, 42.73 0.05 M0.88 60.39 C20.05 35.62, 39.39 11.96, 53.36 0.01 M0.88 60.39 C20.82 36.92, 41.84 12.37, 53.36 0.01 M1.01 72.43 C16.29 56.44, 27.68 43.05, 63.99 -0.02 M1.01 72.43 C18.07 52.18, 35.55 33.41, 63.99 -0.02 M3.11 82.21 C24.13 59.49, 47.71 33.07, 74.62 -0.06 M3.11 82.21 C25.87 56.71, 48.5 30.52, 74.62 -0.06 M8.49 88.21 C34.82 60.15, 58.81 30.85, 85.25 -0.09 M8.49 88.21 C29.98 63.95, 51.04 37.96, 85.25 -0.09 M17.16 90.44 C41.39 64.71, 62.71 38.25, 95.88 -0.13 M17.16 90.44 C40.36 61.37, 65.27 33.86, 95.88 -0.13 M27.13 91.16 C53.43 63.69, 79.45 32.57, 106.51 -0.16 M27.13 91.16 C50.03 63.85, 74.96 36.68, 106.51 -0.16 M37.76 91.12 C58.86 66.47, 78.83 43.46, 117.14 -0.2 M37.76 91.12 C63.4 61.29, 89.64 32.63, 117.14 -0.2 M48.39 91.09 C79.65 54.14, 111.37 18.24, 127.77 -0.23 M48.39 91.09 C67.04 69.97, 84.9 48.04, 127.77 -0.23 M58.36 91.81 C74.02 72.65, 90.75 54.39, 138.4 -0.26 M58.36 91.81 C77.26 67.72, 98.01 45.29, 138.4 -0.26 M68.99 91.78 C98.97 61.58, 126.4 25.32, 149.03 -0.3 M68.99 91.78 C86.67 71.93, 102.95 53.87, 149.03 -0.3 M79.62 91.74 C103.45 65.03, 125.98 39.77, 159.66 -0.33 M79.62 91.74 C103.95 65.1, 127.41 36.95, 159.66 -0.33 M90.25 91.71 C105.37 74.43, 122.73 53.32, 169.64 0.39 M90.25 91.71 C119.31 59.41, 147.9 25.94, 169.64 0.39 M100.88 91.67 C126.65 62.11, 154.51 32.8, 179.61 1.11 M100.88 91.67 C117.94 73.29, 134.79 54.41, 179.61 1.11 M111.51 91.64 C129.88 71.25, 144.01 52.73, 188.27 3.34 M111.51 91.64 C132.77 66.6, 153.64 41.7, 188.27 3.34 M122.14 91.6 C148.81 60.21, 170.83 32.42, 194.97 7.83 M122.14 91.6 C140.63 71.67, 156.37 51.36, 194.97 7.83 M132.77 91.57 C147.98 73.19, 164.46 55.31, 198.38 16.1 M132.77 91.57 C157.43 62.15, 182.55 33.64, 198.38 16.1 M143.4 91.53 C157.95 75.12, 169.77 60.17, 199.83 26.63 M143.4 91.53 C156.53 77.63, 167.24 65.39, 199.83 26.63 M154.03 91.5 C169.29 73.72, 185.73 53.5, 199.96 38.67 M154.03 91.5 C166.48 75.36, 180.52 60.39, 199.96 38.67 M164.66 91.47 C173.14 81.78, 180.02 74.25, 199.44 51.47 M164.66 91.47 C171.32 82.35, 180.95 74.62, 199.44 51.47 M175.29 91.43 C182.45 82.13, 190.88 75.59, 199.57 63.51 M175.29 91.43 C181.88 83.82, 188.23 76.04, 199.57 63.51 M188.55 88.38 C192.59 85.04, 192.64 83.41, 198.39 77.06 M188.55 88.38 C192.61 83.69, 195.87 80.54, 198.39 77.06" stroke="#e9ecef" stroke-width="1" fill="none"></path><path d="M22.85 0 C78.03 0.72, 134.1 -1.29, 176.6 0 M22.85 0 C67.42 -1.21, 112.53 -1.42, 176.6 0 M176.6 0 C192.48 0.54, 199.1 6.25, 199.45 22.85 M176.6 0 C192.31 0.34, 197.41 6.9, 199.45 22.85 M199.45 22.85 C197.36 33.44, 199.04 43.51, 199.45 68.55 M199.45 22.85 C198.88 38.73, 198.9 54.98, 199.45 68.55 M199.45 68.55 C199.59 82.63, 191.28 91.34, 176.6 91.4 M199.45 68.55 C199.64 83.89, 192.66 93.37, 176.6 91.4 M176.6 91.4 C122.15 94.5, 67.32 92.48, 22.85 91.4 M176.6 91.4 C129.01 89.77, 80.64 90.52, 22.85 91.4 M22.85 91.4 C8.87 92.2, -0.39 85.25, 0 68.55 M22.85 91.4 C8.63 92.97, -1.69 85.6, 0 68.55 M0 68.55 C-0.31 55.51, -1.97 43.61, 0 22.85 M0 68.55 C0.38 55.78, 0.49 42.28, 0 22.85 M0 22.85 C0.75 8.46, 6.28 -1.96, 22.85 0 M0 22.85 C1.76 6.12, 9.55 0.81, 22.85 0" stroke="#868e96" stroke-width="2" fill="none"></path></g><g transform="translate(532.0206715544007 38.19921875) rotate(0 50.00798034667969 17.5)"><text x="50.00798034667969" y="24.528" font-family="Virgil, Segoe UI Emoji" font-size="28px" fill="#868e96" text-anchor="middle" style="white-space: pre;" direction="ltr" dominant-baseline="alphabetic">Console</text></g><g stroke-linecap="round"><g transform="translate(579.2161519010804 106.1484375) rotate(0 -59.2734375 43.078125)"><path d="M-0.29 0.69 C-20.16 15.03, -98.62 72.89, -118.48 87.13 M1.76 0 C-18.34 14.55, -99.59 70.95, -119.39 85.52" stroke="#868e96" stroke-width="2" fill="none"></path></g><g transform="translate(579.2161519010804 106.1484375) rotate(0 -59.2734375 43.078125)"><path d="M-105.21 64.93 C-109.04 72.51, -113.72 78.37, -119.39 85.52 M-105.21 64.93 C-108.93 70.73, -113.16 77.62, -119.39 85.52" stroke="#868e96" stroke-width="2" fill="none"></path></g><g transform="translate(579.2161519010804 106.1484375) rotate(0 -59.2734375 43.078125)"><path d="M-95.29 78.86 C-102.86 81.34, -111.15 82.13, -119.39 85.52 M-95.29 78.86 C-101.81 80.57, -108.98 83.34, -119.39 85.52" stroke="#868e96" stroke-width="2" fill="none"></path></g></g><mask></mask><g stroke-linecap="round"><g transform="translate(304.41146440108037 110.64453125) rotate(0 66.8984375 38.763671875)"><path d="M-0.54 -0.97 C21.77 12.21, 112.28 64.66, 134.69 77.88 M1.37 1.13 C23.54 14.04, 112.23 63.39, 134.21 75.95" stroke="#868e96" stroke-width="2" fill="none"></path></g><g transform="translate(304.41146440108037 110.64453125) rotate(0 66.8984375 38.763671875)"><path d="M109.54 71.87 C116.87 74.95, 128.08 75.16, 134.21 75.95 M109.54 71.87 C118.24 72.45, 128.64 75.11, 134.21 75.95" stroke="#868e96" stroke-width="2" fill="none"></path></g><g transform="translate(304.41146440108037 110.64453125) rotate(0 66.8984375 38.763671875)"><path d="M117.94 56.97 C122.06 65.45, 130.2 71.08, 134.21 75.95 M117.94 56.97 C123.53 63.1, 130.82 71.29, 134.21 75.95" stroke="#868e96" stroke-width="2" fill="none"></path></g></g><mask></mask></svg>